<svg xmlns="http://www.w3.org/2000/svg" viewBox="0 0 78 78"><defs><style>.cls-1{fill:#fff;}.cls-2{fill:#808184;}.cls-3{fill:#844e3a;}.cls-4{fill:#2c1511;}.cls-5{fill:#fac367;}.cls-6{fill:#faf9e5;}.cls-7{fill:none;}.cls-8{fill:#de9b97;}.cls-9{fill:#592b1f;}.cls-10{fill:#d44b29;}</style></defs><title>Asset 39</title><g id="Layer_2" data-name="Layer 2"><g id="Layer_1-2" data-name="Layer 1"><circle class="cls-1" cx="39" cy="39" r="39"/><path class="cls-2" d="M43.73,30.42s7,.7,7.94-1,.76-4.77-4-4.77S43.73,30.42,43.73,30.42Z"/><path class="cls-2" d="M33.61,30.42s-7,.7-7.94-1-.76-4.77,4-4.77S33.61,30.42,33.61,30.42Z"/><path class="cls-3" d="M50.31,19.54c-2.89-.19-6.84,1.81-12.14,1.81-4.72,0-9-2.09-11.72-1.83s-4.89,1.61-4.89,7.83a14.5,14.5,0,0,0,.31,3.14,6.9,6.9,0,0,0,5.57,5.79,14.06,14.06,0,0,0,2,.29c.62,0,1.32.1,2.08.14C33.42,32,36,28.05,38.35,28.05s5.06,4,7,8.77c.93-.06,1.78-.14,2.51-.25a12.39,12.39,0,0,0,1.63-.36,8,8,0,0,0,5.66-5.85,14.24,14.24,0,0,0,.47-3.82C55.67,20.46,52.8,19.71,50.31,19.54Z"/><circle class="cls-4" cx="47.48" cy="27.59" r="1.73"/><circle class="cls-4" cx="29.43" cy="27.59" r="1.73"/><path class="cls-5" d="M22.15,14.91c.62,3.92,7.7,7,16.35,7s15.73-3.09,16.34-7c-3.64,2.35-9.6,3.88-16.34,3.88S25.8,17.26,22.15,14.91Z"/><path class="cls-6" d="M21.87,30.49a7.92,7.92,0,0,1-8.89.24,8.25,8.25,0,0,0,3.74,4.48l-.73.11a9.46,9.46,0,0,1-3.29-.22A9.18,9.18,0,0,0,19,38.46a7.51,7.51,0,0,1-2.4.61,7.57,7.57,0,0,0,7.29.43,7.73,7.73,0,0,0,3.52-3.22A6.9,6.9,0,0,1,21.87,30.49Z"/><path class="cls-7" d="M35.69,44.11a1.8,1.8,0,0,0,1.79,1.8A1.79,1.79,0,0,0,35.69,44.11Z"/><path class="cls-7" d="M39.52,45.91a1.8,1.8,0,0,0,1.79-1.8A1.79,1.79,0,0,0,39.52,45.91Z"/><path class="cls-6" d="M64.16,34.84a9.23,9.23,0,0,1-3.29.21c-.25,0-.49-.06-.73-.1a8.24,8.24,0,0,0,3.74-4.48,7.71,7.71,0,0,1-2.73,1.09,7.83,7.83,0,0,1-5.95-1.2,8,8,0,0,1-5.66,5.85,7.78,7.78,0,0,0,3.4,3,7.56,7.56,0,0,0,7.3-.42,7.65,7.65,0,0,1-2.4-.61A9.23,9.23,0,0,0,64.16,34.84Z"/><path class="cls-8" d="M38.35,54.32c-2.75,0-5.82,1.21-7.75.41a7.85,7.85,0,0,0,15.49.07C44.07,55.45,41,54.32,38.35,54.32Z"/><path class="cls-9" d="M38.35,53.45c-4.36,0-9.5,3-9.7-3.71,0,.15,0,.3,0,.45,0,2.78.76,4,2,4.54,1.93.8,5-.41,7.75-.41s5.72,1.13,7.74.48c1.37-.43,2.27-1.67,2.27-4.61,0-.15,0-.3,0-.45C48.13,56.48,42.71,53.45,38.35,53.45Z"/><path class="cls-10" d="M38.35,28.05c-2.35,0-4.93,3.9-6.84,8.66a37.78,37.78,0,0,0-2.87,12.61c0,.15,0,.28,0,.42.2,6.74,5.34,3.71,9.7,3.71s9.78,3,10-3.71c0-.14,0-.27,0-.42a36.39,36.39,0,0,0-3-12.5C43.41,32,40.72,28.05,38.35,28.05ZM35.69,44.11a1.79,1.79,0,0,1,1.79,1.8A1.8,1.8,0,0,1,35.69,44.11Zm3.83,1.8a1.79,1.79,0,0,1,1.79-1.8A1.8,1.8,0,0,1,39.52,45.91Z"/><path class="cls-1" d="M41.31,44.11a1.79,1.79,0,0,0-1.79,1.8A1.8,1.8,0,0,0,41.31,44.11Z"/><path class="cls-1" d="M35.69,44.11a1.79,1.79,0,0,1,1.79,1.8A1.8,1.8,0,0,1,35.69,44.11Z"/></g></g></svg>