<svg xmlns="http://www.w3.org/2000/svg" viewBox="0 0 75.49 88.6"><defs><style>.cls-1{fill:#fac367;}.cls-2{fill:#808184;}.cls-3{fill:#844e3a;}.cls-4{fill:#2c1511;}.cls-5{fill:#fff;}.cls-6{fill:#de9456;}.cls-7{fill:none;}.cls-8{fill:#e5a4a2;}.cls-9{fill:#592b1f;}.cls-10{fill:#d7c2be;}</style></defs><title>Asset 32</title><g id="Layer_2" data-name="Layer 2"><g id="Layer_1-2" data-name="Layer 1"><path class="cls-1" d="M75.49,42.52c0-17.11-2.55-36.83-19.18-40.24C41-.86,33.72-.65,20.58,2.28,6.68,5.37,0,19.39,0,41.21S23.4,88.6,37.88,88.6,75.49,62.27,75.49,42.52Z"/><path class="cls-2" d="M42.85,30.19s7,.69,7.95-1,.76-4.77-4-4.77S42.85,30.19,42.85,30.19Z"/><path class="cls-2" d="M32.74,30.19s-7,.69-8-1-.76-4.77,4-4.77S32.74,30.19,32.74,30.19Z"/><path class="cls-3" d="M49.43,19.3c-2.88-.19-6.83,1.81-12.13,1.81-4.73,0-9-2.09-11.72-1.83s-4.89,1.61-4.89,7.83A14.5,14.5,0,0,0,21,30.25a6.93,6.93,0,0,0,5.57,5.8,15.56,15.56,0,0,0,2,.28c.61.05,1.32.1,2.08.14,1.91-4.75,4.49-8.66,6.84-8.66s5.05,4,7,8.78c.94-.07,1.79-.15,2.52-.26A11,11,0,0,0,48.67,36a8.05,8.05,0,0,0,5.66-5.85,14.24,14.24,0,0,0,.47-3.82C54.8,20.22,51.93,19.47,49.43,19.3Z"/><circle class="cls-4" cx="46.61" cy="27.35" r="1.73"/><circle class="cls-4" cx="28.56" cy="27.35" r="1.73"/><path class="cls-5" d="M21.28,14.67c.61,3.92,7.69,7,16.35,7s15.73-3.09,16.34-7c-3.64,2.35-9.6,3.88-16.34,3.88S24.92,17,21.28,14.67Z"/><path class="cls-6" d="M21,30.25a7.91,7.91,0,0,1-8.89.24A8.21,8.21,0,0,0,15.85,35c-.24.05-.48.08-.73.11a9.71,9.71,0,0,1-3.29-.21,9.18,9.18,0,0,0,6.32,3.35,7.38,7.38,0,0,1-2.4.61,7.58,7.58,0,0,0,7.3.43,7.87,7.87,0,0,0,3.52-3.21A6.93,6.93,0,0,1,21,30.25Z"/><path class="cls-7" d="M34.81,43.87a1.81,1.81,0,0,0,1.8,1.8A1.81,1.81,0,0,0,34.81,43.87Z"/><path class="cls-7" d="M38.64,45.67a1.8,1.8,0,0,0,1.8-1.8A1.81,1.81,0,0,0,38.64,45.67Z"/><path class="cls-6" d="M63.29,34.6a9.46,9.46,0,0,1-3.29.22l-.73-.11A8.28,8.28,0,0,0,63,30.23a7.69,7.69,0,0,1-2.74,1.09,7.81,7.81,0,0,1-5.94-1.2A8.05,8.05,0,0,1,48.67,36a7.81,7.81,0,0,0,3.4,3,7.59,7.59,0,0,0,7.3-.43A7.77,7.77,0,0,1,57,38,9.21,9.21,0,0,0,63.29,34.6Z"/><path class="cls-8" d="M37.48,54.08c-2.75,0-5.82,1.21-7.76.41a7.86,7.86,0,0,0,15.5.07C43.19,55.21,40.14,54.08,37.48,54.08Z"/><path class="cls-9" d="M37.48,53.21c-4.36,0-9.5,3-9.71-3.71,0,.15,0,.31,0,.45,0,2.78.77,4,2,4.54,1.94.8,5-.41,7.76-.41s5.71,1.13,7.74.48c1.37-.43,2.27-1.67,2.27-4.61,0-.14,0-.3,0-.45C47.26,56.24,41.84,53.21,37.48,53.21Z"/><path class="cls-10" d="M37.48,27.81c-2.35,0-4.93,3.91-6.84,8.66a37.87,37.87,0,0,0-2.88,12.61c0,.15,0,.28,0,.42.21,6.74,5.35,3.71,9.71,3.71s9.78,3,10-3.71c0-.14,0-.27,0-.42a36.32,36.32,0,0,0-3-12.49C42.53,31.78,39.85,27.81,37.48,27.81ZM34.81,43.87a1.81,1.81,0,0,1,1.8,1.8A1.81,1.81,0,0,1,34.81,43.87Zm3.83,1.8a1.81,1.81,0,0,1,1.8-1.8A1.8,1.8,0,0,1,38.64,45.67Z"/><path class="cls-5" d="M40.44,43.87a1.81,1.81,0,0,0-1.8,1.8A1.8,1.8,0,0,0,40.44,43.87Z"/><path class="cls-5" d="M34.81,43.87a1.81,1.81,0,0,1,1.8,1.8A1.81,1.81,0,0,1,34.81,43.87Z"/></g></g></svg>